<svg width="96" height="96" viewBox="0 0 96 96" fill="none" xmlns="http://www.w3.org/2000/svg">
  <defs>
    <linearGradient id="assistantGradient" x1="12" y1="12" x2="84" y2="84" gradientUnits="userSpaceOnUse">
      <stop stop-color="#3B82F6"/>
      <stop offset="1" stop-color="#1D4ED8"/>
    </linearGradient>
    <linearGradient id="assistantGloss" x1="32" y1="20" x2="56" y2="72" gradientUnits="userSpaceOnUse">
      <stop stop-color="white" stop-opacity="0.65"/>
      <stop offset="1" stop-color="white" stop-opacity="0"/>
    </linearGradient>
  </defs>
  <rect x="6" y="6" width="84" height="84" rx="24" fill="url(#assistantGradient)"/>
  <circle cx="48" cy="48" r="30" fill="white" fill-opacity="0.08"/>
  <path d="M34 42C34 36.4772 38.4772 32 44 32H52C57.5228 32 62 36.4772 62 42V44C62 49.5228 57.5228 54 52 54H51.3819C50.7976 54 50.2244 54.2054 49.75 54.5858L45.1187 58.284C43.8102 59.3333 42 58.4032 42 56.7V54C37.4772 54 34 49.5228 34 44V42Z" fill="white"/>
  <path d="M44 44H52" stroke="#2563EB" stroke-width="2.5" stroke-linecap="round"/>
  <path d="M44 38H52" stroke="#2563EB" stroke-width="2.5" stroke-linecap="round"/>
  <path d="M40 44H40.02" stroke="#2563EB" stroke-width="3" stroke-linecap="round"/>
  <path d="M55.98 44H56" stroke="#2563EB" stroke-width="3" stroke-linecap="round"/>
  <rect x="20" y="20" width="56" height="56" rx="20" fill="url(#assistantGloss)"/>
</svg>
